<svg xmlns="http://www.w3.org/2000/svg" viewBox="0 0 420 120" role="img" aria-labelledby="title desc">
  <title id="title">J5labs logo</title>
  <desc id="desc">The J5labs wordmark with a geometric J5 monogram.</desc>
  <defs>
    <linearGradient id="panel" x1="12" y1="10" x2="108" y2="112" gradientUnits="userSpaceOnUse">
      <stop offset="0" stop-color="#0a7a73"/>
      <stop offset="0.55" stop-color="#173f3a"/>
      <stop offset="1" stop-color="#e9594f"/>
    </linearGradient>
    <linearGradient id="spark" x1="25" y1="23" x2="94" y2="92" gradientUnits="userSpaceOnUse">
      <stop offset="0" stop-color="#f7c85f"/>
      <stop offset="1" stop-color="#53c6b8"/>
    </linearGradient>
  </defs>
  <rect x="6" y="8" width="104" height="104" rx="22" fill="#122522"/>
  <path d="M25 23h64c4.4 0 8 3.6 8 8v35c0 19.8-16.2 36-36 36H25c-4.4 0-8-3.6-8-8V31c0-4.4 3.6-8 8-8Z" fill="url(#panel)"/>
  <path d="M28 36h21v31.5c0 7.1-4.6 12-11.6 12-4 0-7.5-1.3-10.7-4l4.8-7.7c1.6 1.4 3.2 2.1 4.8 2.1 2.1 0 3.3-1.4 3.3-3.9V45.6H28V36Zm31.3 0H89v9.5H68.5l-.9 8.2c2.1-1 4.4-1.5 7-1.5 8.9 0 15.4 5.5 15.4 13.8 0 9-7.2 14.6-17 14.6-6.8 0-12.5-2.2-17-6.4l5.8-7.6c3.2 2.8 6.7 4.3 10.7 4.3 4.4 0 7.1-2 7.1-5.5 0-3.3-2.6-5.4-7.1-5.4-2.9 0-5.4.8-7.7 2.3l-7.4-3.6 1.9-22.7Z" fill="#fffaf2"/>
  <path d="M28 91h40" stroke="#fffaf2" stroke-width="5" stroke-linecap="round"/>
  <path d="M80 91h6" stroke="#f7c85f" stroke-width="5" stroke-linecap="round"/>
  <circle cx="91" cy="31" r="5" fill="url(#spark)"/>
  <path d="M85 31H73M91 37v11" stroke="#fffaf2" stroke-width="3" stroke-linecap="round" opacity="0.72"/>
  <text x="132" y="70" fill="#122522" font-family="Inter, Avenir Next, Segoe UI, Arial, sans-serif" font-size="54" font-weight="800">J5labs</text>
  <path d="M135 88h76" stroke="#0a7a73" stroke-width="6" stroke-linecap="round"/>
  <path d="M225 88h26" stroke="#e9594f" stroke-width="6" stroke-linecap="round"/>
  <path d="M265 88h52" stroke="#f7c85f" stroke-width="6" stroke-linecap="round"/>
</svg>
