<svg xmlns="http://www.w3.org/2000/svg" viewBox="0 0 128 128" role="img" aria-labelledby="title desc">
  <title id="title">J5labs mark</title>
  <desc id="desc">A J5 monogram inside a geometric software lab mark.</desc>
  <defs>
    <linearGradient id="panel" x1="16" y1="12" x2="112" y2="116" gradientUnits="userSpaceOnUse">
      <stop offset="0" stop-color="#0a7a73"/>
      <stop offset="0.55" stop-color="#173f3a"/>
      <stop offset="1" stop-color="#e9594f"/>
    </linearGradient>
    <linearGradient id="spark" x1="31" y1="26" x2="96" y2="95" gradientUnits="userSpaceOnUse">
      <stop offset="0" stop-color="#f7c85f"/>
      <stop offset="1" stop-color="#53c6b8"/>
    </linearGradient>
  </defs>
  <rect x="8" y="8" width="112" height="112" rx="24" fill="#122522"/>
  <path d="M30 26h68c4.4 0 8 3.6 8 8v38c0 20.9-17.1 38-38 38H30c-4.4 0-8-3.6-8-8V34c0-4.4 3.6-8 8-8Z" fill="url(#panel)"/>
  <path d="M34 39h22v33.4c0 7.6-4.9 12.8-12.3 12.8-4.2 0-7.9-1.4-11.3-4.2l5.1-8.2c1.7 1.5 3.4 2.2 5.1 2.2 2.2 0 3.5-1.5 3.5-4.1V49.2H34V39Zm33.1 0h31.4v10.1H76.8l-.9 8.7c2.2-1.1 4.6-1.6 7.4-1.6 9.4 0 16.3 5.8 16.3 14.6 0 9.5-7.6 15.5-18 15.5-7.2 0-13.2-2.3-18-6.8l6.1-8.1c3.4 3 7.1 4.6 11.3 4.6 4.7 0 7.5-2.1 7.5-5.8 0-3.5-2.8-5.7-7.5-5.7-3.1 0-5.7.8-8.1 2.4l-7.8-3.8 2-24.1Z" fill="#fffaf2"/>
  <path d="M34 96h42" stroke="#fffaf2" stroke-width="5" stroke-linecap="round"/>
  <path d="M88 96h6" stroke="#f7c85f" stroke-width="5" stroke-linecap="round"/>
  <circle cx="99" cy="34" r="5" fill="url(#spark)"/>
  <path d="M93 34H80M99 40v12" stroke="#fffaf2" stroke-width="3" stroke-linecap="round" opacity="0.72"/>
</svg>
